<?xml version="1.0" encoding="UTF-8"?>
<svg version="1.1" xmlns="http://www.w3.org/2000/svg" width="800" height="600">
<path d="M0 0 C264 0 528 0 800 0 C800 198 800 396 800 600 C536 600 272 600 0 600 C0 402 0 204 0 0 Z " fill="#1D2D41" transform="translate(0,0)"/>
<path d="M0 0 C6.30025563 3.53148657 10.7322664 7.61861305 13.55273438 14.32543945 C15.17562939 20.38020015 14.98158327 26.65770164 14.93188477 32.88574219 C14.91799431 35.31584148 14.95219241 37.74209797 14.99023438 40.171875 C15.04055941 50.1149279 13.95247256 56.90992234 7.390625 64.6328125 C3.26758576 68.15984805 -0.97414043 71.2464392 -5.56640625 74.13671875 C-14.82530231 80.02099986 -23.91876567 86.15140339 -33.01733398 92.27954102 C-35.99369771 94.28248722 -38.97436977 96.27891748 -41.95507812 98.27539062 C-43.84792354 99.54908203 -45.74051157 100.82315605 -47.6328125 102.09765625 C-48.52430496 102.69343979 -49.41579742 103.28922333 -50.33430481 103.90306091 C-51.14993393 104.45446243 -51.96556305 105.00586395 -52.8059082 105.57397461 C-53.5253511 106.05756943 -54.24479401 106.54116425 -54.98603821 107.03941345 C-56.78329029 108.23572647 -56.78329029 108.23572647 -57.64453125 110.3203125 C-56.97421875 110.54589844 -56.30390625 110.77148438 -55.61328125 111.00390625 C-51.80201653 112.69390127 -48.54064671 114.99603471 -45.14453125 117.3828125 C-38.2861889 122.15941121 -31.37485437 126.84127671 -24.41015625 131.4609375 C-21.9090011 133.12679883 -19.40859125 134.79377266 -16.90844727 136.46115112 C-15.24290641 137.56867433 -13.57479812 138.67234693 -11.90405273 139.77200317 C-9.51346164 141.34655572 -7.13300855 142.93550231 -4.75390625 144.52734375 C-3.68441742 145.22389069 -3.68441742 145.22389069 -2.59332275 145.93450928 C4.33468918 150.60773949 10.59469558 156.40162294 12.90722656 164.66015625 C13.89373363 170.51472108 13.78270412 176.40030422 13.73046875 182.3203125 C13.74207031 183.63515625 13.75367188 184.95 13.765625 186.3046875 C13.73201878 197.46195093 12.46445164 205.20182115 4.5703125 213.3671875 C-2.17366628 219.31425873 -9.09484548 220.10669744 -17.953125 219.81640625 C-26.47013693 218.67179195 -32.73164755 213.27542167 -39.63671875 208.50390625 C-50.75447927 200.84179272 -61.96849969 193.32230286 -73.17114258 185.78515625 C-91.67011351 173.33641443 -91.67011351 173.33641443 -99.234375 168.12890625 C-100.68831665 167.12815063 -100.68831665 167.12815063 -102.17163086 166.10717773 C-111.89968139 159.0778953 -118.2101177 148.76835766 -121.64453125 137.3203125 C-122.54506168 131.44557371 -122.81760838 125.71081069 -122.84765625 119.7734375 C-122.85335632 118.88098328 -122.8590564 117.98852905 -122.8649292 117.06903076 C-122.87432417 115.18991257 -122.88089111 113.31077831 -122.88476562 111.43164062 C-122.89445673 108.59214823 -122.92552698 105.75338518 -122.95703125 102.9140625 C-123.06092214 85.15729745 -120.49788786 71.15413166 -108.12109375 57.7421875 C-102.68858508 52.42963959 -96.92261349 47.99575973 -90.55859375 43.859375 C-88.95815213 42.80578236 -87.35824012 41.75138487 -85.75878906 40.69628906 C-84.92383911 40.14670532 -84.08888916 39.59712158 -83.2286377 39.03088379 C-78.81064422 36.10635535 -74.42804432 33.12980907 -70.04296875 30.15625 C-68.21492069 28.91915713 -66.3867951 27.68217882 -64.55859375 26.4453125 C-61.7829403 24.56677064 -59.00786572 22.68739778 -56.234375 20.80566406 C-47.06123397 14.58379731 -37.88347297 8.38016071 -28.49609375 2.484375 C-27.84031342 2.07101898 -27.18453308 1.65766296 -26.50888062 1.23178101 C-17.93433757 -4.09158173 -9.17831289 -4.17328694 0 0 Z " fill="#01FDC4" transform="translate(372.64453125,190.6796875)"/>
<path d="M0 0 C2.8106172 1.6311737 5.42868012 3.47420452 8.0625 5.375 C9.71180254 6.53372938 11.36300298 7.68975992 13.015625 8.84375 C13.94439453 9.4934375 14.87316406 10.143125 15.83007812 10.8125 C21.55419406 14.76259849 27.35755959 18.59408346 33.15203857 22.43988037 C36.73774851 24.82174318 40.31771928 27.21220508 43.8984375 29.6015625 C47.75329367 32.17371912 51.60867516 34.74484275 55.47753906 37.29589844 C73.43822137 49.14675624 88.39017189 59.76306285 93.63031006 81.9069519 C94.81376093 88.60721425 94.50309763 95.54322114 94.41162109 102.32080078 C94.37497392 105.12699704 94.37060406 107.93186962 94.37109375 110.73828125 C94.29766484 129.70373909 92.05619088 145.9636345 78 160 C71.59640997 165.42658127 64.88966857 170.24216711 57.85546875 174.80859375 C56.45800163 175.72512474 56.45800163 175.72512474 55.03230286 176.66017151 C52.08711247 178.59069911 49.13758321 180.51445947 46.1875 182.4375 C42.30441621 184.97546536 38.42317733 187.51623503 34.54296875 190.05859375 C33.6139122 190.66697586 32.68485565 191.27535797 31.72764587 191.9021759 C24.73706031 196.49029262 17.84336591 201.19551868 11 206 C8.36382596 207.82707075 5.71797367 209.63863074 3.0625 211.4375 C2.45599609 211.85708984 1.84949219 212.27667969 1.22460938 212.70898438 C-6.92323287 218.2081201 -14.3462483 218.90469445 -24 218 C-27.03322812 217.08484253 -29.42016571 215.82032103 -32 214 C-33.36125 213.071875 -33.36125 213.071875 -34.75 212.125 C-40.06986851 207.10067974 -42.71104035 201.52277506 -43.30639648 194.26464844 C-43.3395409 192.87978599 -43.36053054 191.49459375 -43.37109375 190.109375 C-43.38012222 189.36471985 -43.3891507 188.6200647 -43.39845276 187.85284424 C-43.41289748 186.28295879 -43.42182756 184.71301393 -43.42553711 183.14306641 C-43.43739953 180.77009758 -43.48660617 178.39976238 -43.53710938 176.02734375 C-43.63375114 167.57224588 -43.58083234 159.84898608 -38 153 C-34.90559973 149.94890834 -31.57185397 147.46623675 -28 145 C-26.9785791 144.29133789 -25.9571582 143.58267578 -24.90478516 142.85253906 C-21.56174044 140.57644482 -18.19264781 138.34529548 -14.8125 136.125 C-13.60628661 135.32739022 -12.40039732 134.52929012 -11.19482422 133.73071289 C-8.84547739 132.17534945 -6.49464978 130.6222765 -4.14208984 129.07177734 C-0.29681705 126.53634728 3.5413596 123.99047242 7.375 121.4375 C7.9426709 121.06077148 8.5103418 120.68404297 9.09521484 120.29589844 C11.9934636 118.36600775 14.86547573 116.40334187 17.71484375 114.40234375 C18.3195752 113.97832275 18.92430664 113.55430176 19.54736328 113.11743164 C21.1978684 111.95568606 22.84327197 110.7867021 24.48828125 109.6171875 C27 108 27 108 29 108 C25.85405223 104.59763362 22.36031177 102.08165017 18.49609375 99.57421875 C17.8471666 99.14727219 17.19823944 98.72032562 16.52964783 98.28044128 C15.11040214 97.34686641 13.68987999 96.41522986 12.26824951 95.48529053 C5.70980449 91.19070291 -0.82001018 86.85228363 -7.35473633 82.52172852 C-9.08776741 81.3748384 -10.82216199 80.23000617 -12.55786133 79.0871582 C-15.1138922 77.40347485 -17.66477738 75.71223055 -20.21484375 74.01953125 C-20.97957504 73.51831253 -21.74430634 73.01709381 -22.5322113 72.50068665 C-39.49748923 61.19341978 -39.49748923 61.19341978 -41.58276367 51.20996094 C-42.27170429 45.90967347 -42.26350871 40.61839917 -42.29516602 35.27929688 C-42.30666175 33.93348659 -42.32707594 32.58772104 -42.35668945 31.2421875 C-42.57712024 21.1934992 -41.95967284 11.14842176 -34.7265625 3.3828125 C-23.32301552 -5.75034503 -12.72959051 -6.01597205 0 0 Z " fill="#01FDC4" transform="translate(456,192)"/>
<path d="M0 0 C0.66 0.33 1.32 0.66 2 1 C1.34 1.99 0.68 2.98 0 4 C0.6703125 4.22558594 1.340625 4.45117188 2.03125 4.68359375 C5.84251472 6.37358877 9.10388454 8.67572221 12.5 11.0625 C19.35834235 15.83909871 26.26967688 20.52096421 33.234375 25.140625 C35.73553015 26.80648633 38.23594 28.47346016 40.73608398 30.14083862 C42.40162484 31.24836183 44.06973313 32.35203443 45.74047852 33.45169067 C48.13106961 35.02624322 50.5115227 36.61518981 52.890625 38.20703125 C53.60361755 38.67139587 54.31661011 39.1357605 55.0512085 39.61419678 C61.97922043 44.28742699 68.23922683 50.08131044 70.55175781 58.33984375 C71.53826488 64.19440858 71.42723537 70.07999172 71.375 76 C71.38660156 77.31484375 71.39820313 78.6296875 71.41015625 79.984375 C71.37655003 91.14163843 70.10898289 98.88150865 62.21484375 107.046875 C55.47086497 112.99394623 48.54968577 113.78638494 39.69140625 113.49609375 C31.18457129 112.35284715 24.93223477 106.9686783 18.03515625 102.203125 C7.69957189 95.08061777 -2.71459027 88.07494492 -13.125 81.0625 C-15.07295972 79.74941282 -17.02087661 78.43626212 -18.96875 77.12304688 C-29.46984301 70.03984674 -29.46984301 70.03984674 -40 63 C-39.01 62.505 -39.01 62.505 -38 62 C-35.375 62.9375 -35.375 62.9375 -33 64 C-33.26554687 63.50371094 -33.53109375 63.00742187 -33.8046875 62.49609375 C-34.15789062 61.81675781 -34.51109375 61.13742187 -34.875 60.4375 C-35.22304688 59.77621094 -35.57109375 59.11492187 -35.9296875 58.43359375 C-39.42088691 50.49557465 -40.02140651 42.55427951 -39 34 C-37.58410893 30.36657366 -35.67475124 27.81339925 -33 25 C-32.45472656 24.42378906 -31.90945313 23.84757812 -31.34765625 23.25390625 C-25.59948723 17.80761044 -11.13436407 5 -3 5 C-2.814375 4.0409375 -2.814375 4.0409375 -2.625 3.0625 C-2.41875 2.381875 -2.2125 1.70125 -2 1 C-1.34 0.67 -0.68 0.34 0 0 Z " fill="#07EBB6" transform="translate(315,297)"/>
<path d="M0 0 C2.81059437 1.63116045 5.4287926 3.47408385 8.0625 5.375 C9.6961289 6.52338074 11.33171415 7.66898117 12.96875 8.8125 C13.89558594 9.46089844 14.82242188 10.10929688 15.77734375 10.77734375 C23.19073678 15.89033846 30.7217854 20.83140146 38.22561646 25.8102417 C46.21719623 31.11469339 54.18338898 36.43865424 62 42 C61.01 42.495 61.01 42.495 60 43 C60.433125 43.680625 60.86625 44.36125 61.3125 45.0625 C63.16311649 48.28394352 64.56750886 51.5744777 66 55 C66.34933594 55.58523437 66.69867187 56.17046875 67.05859375 56.7734375 C69.65256976 62.90856748 69.0388305 71.34856633 66.65625 77.4296875 C65.2126176 80.05137841 63.71325509 82.54739375 62 85 C61.34 85 60.68 85 60 85 C59.79375 85.5775 59.5875 86.155 59.375 86.75 C57.48749279 89.83864817 55.0435022 91.06854668 52 93 C50.96732675 93.86099457 49.94627799 94.73612844 48.9375 95.625 C46.21149707 97.82900237 44.2090036 98.76576785 41 100 C39.321702 101.31866272 37.65385233 102.65080468 36 104 C34.515 104.495 34.515 104.495 33 105 C31.33289654 106.49985609 31.33289654 106.49985609 30 108 C28.989375 107.21625 27.97875 106.4325 26.9375 105.625 C23.20268954 102.82652344 19.36659647 100.20471241 15.4765625 97.62890625 C14.8332045 97.20119431 14.1898465 96.77348236 13.5269928 96.33280945 C10.55503544 94.35729211 7.58091785 92.38504185 4.60635376 90.41345215 C-0.56656771 86.9839909 -5.73280091 83.54478688 -10.8918457 80.09448242 C-12.68591494 78.89739755 -14.48250941 77.70408936 -16.28149414 76.5144043 C-18.92472604 74.76537162 -21.55877122 73.00321144 -24.19140625 71.23828125 C-24.98833389 70.71518875 -25.78526154 70.19209625 -26.6063385 69.65315247 C-33.46702594 65.02054029 -39.79325363 59.58802282 -41.61010742 51.17480469 C-42.25980627 45.88445794 -42.26359241 40.60428208 -42.29516602 35.27929688 C-42.30666175 33.93348659 -42.32707594 32.58772104 -42.35668945 31.2421875 C-42.57712024 21.1934992 -41.95967284 11.14842176 -34.7265625 3.3828125 C-23.32301552 -5.75034503 -12.72959051 -6.01597205 0 0 Z " fill="#07EBB6" transform="translate(456,192)"/>
<path d="M0 0 C0.66 0.33 1.32 0.66 2 1 C1.67547852 1.66281982 1.35095703 2.32563965 1.01660156 3.00854492 C-0.22754405 6.66957186 -0.28725753 10.04446689 -0.265625 13.86328125 C-0.26753845 14.6140947 -0.2694519 15.36490814 -0.27142334 16.13847351 C-0.27278021 17.72277157 -0.26911864 19.30708093 -0.26074219 20.89135742 C-0.25008045 23.29436774 -0.26063077 25.69662283 -0.2734375 28.09960938 C-0.27211494 29.64583496 -0.26955055 31.19206008 -0.265625 32.73828125 C-0.26967346 33.44688797 -0.27372192 34.15549469 -0.27789307 34.88557434 C-0.23193138 39.87216065 0.6446296 44.19866429 2 49 C1.01 48.34 0.02 47.68 -1 47 C-1 45.68 -1 44.36 -1 43 C-1.66 43 -2.32 43 -3 43 C-3 30.46 -3 17.92 -3 5 C-2.34 5 -1.68 5 -1 5 C-0.67 3.35 -0.34 1.7 0 0 Z " fill="#045552" transform="translate(414,349)"/>
<path d="M0 0 C4.23730575 6.35595862 4.29280854 13.2930489 4.23046875 20.6875 C4.23001053 21.58944092 4.22955231 22.49138184 4.2290802 23.4206543 C4.22607603 25.3165825 4.21824526 27.21250864 4.20581055 29.10839844 C4.18755302 31.99162661 4.18530128 34.87453249 4.18554688 37.7578125 C4.18063038 39.60937774 4.17480149 41.46094084 4.16796875 43.3125 C4.16685593 44.16481201 4.1657431 45.01712402 4.16459656 45.89526367 C4.12450917 51.01278062 3.73058403 55.93364573 3 61 C2.67 61 2.34 61 2 61 C2.00222061 60.42814972 2.00444122 59.85629944 2.00672913 59.26712036 C2.02880483 53.33026757 2.0439162 47.39342638 2.05493164 41.45654297 C2.05996909 39.23909024 2.06679922 37.02164084 2.07543945 34.80419922 C2.08753072 31.62206195 2.0932341 28.43996849 2.09765625 25.2578125 C2.10281754 24.26194122 2.10797882 23.26606995 2.11329651 22.24002075 C2.11340981 20.85881546 2.11340981 20.85881546 2.11352539 19.44970703 C2.115746 18.6369632 2.11796661 17.82421936 2.12025452 16.98684692 C2.12584658 14.92472641 2.12584658 14.92472641 1 13 C0.77049681 10.795636 0.58924067 8.58607827 0.4375 6.375 C0.35371094 5.18648438 0.26992188 3.99796875 0.18359375 2.7734375 C0.12300781 1.85820312 0.06242188 0.94296875 0 0 Z " fill="#22DAB5" transform="translate(546,265)"/>
<path d="M0 0 C0.33 0 0.66 0 1 0 C1.25 6.625 1.25 6.625 -1 10 C-2.23125216 15.92369045 -2.18797033 22.16056784 -2.31640625 28.19140625 C-2.33718735 29.02212143 -2.35796844 29.85283661 -2.37937927 30.70872498 C-2.44404482 33.32657715 -2.50336792 35.9445176 -2.5625 38.5625 C-2.60576445 40.35222217 -2.64938106 42.14193586 -2.69335938 43.93164062 C-2.79963924 48.28767315 -2.90113258 52.64379319 -3 57 C-3.33 57 -3.66 57 -4 57 C-4.07484211 51.23830927 -4.12892549 45.47690916 -4.16479492 39.71484375 C-4.1797675 37.7597154 -4.20015281 35.80461997 -4.22631836 33.84960938 C-4.49713118 13.0766733 -4.49713118 13.0766733 -1 3 C-0.67 2.01 -0.34 1.02 0 0 Z " fill="#22E4BD" transform="translate(254,263)"/>
<path d="M0 0 C0 3 0 3 -1.609375 4.68359375 C-2.31578125 5.26238281 -3.0221875 5.84117187 -3.75 6.4375 C-6.07866007 8.37942147 -8.25563998 10.26236735 -10.375 12.4375 C-12 14 -12 14 -14 14 C-14.33 15.65 -14.66 17.3 -15 19 C-15.66 19 -16.32 19 -17 19 C-14.477479 9.36855616 -7.94220781 5.21255581 0 0 Z " fill="#19E4B9" transform="translate(431,335)"/>
<path d="M0 0 C0.66 0.33 1.32 0.66 2 1 C-4.24479618 6.56092801 -4.24479618 6.56092801 -7.6875 8.5625 C-10.48755934 10.30307743 -12.04395992 12.36946334 -14 15 C-14.66 15.66 -15.32 16.32 -16 17 C-15.85319992 12.1555974 -13.38796153 9.86655054 -10.046875 6.71875 C-6.95759089 4.12469464 -3.70691529 1.63615571 0 0 Z " fill="#06DFAC" transform="translate(295,312)"/>
<path d="M0 0 C0.33 0.66 0.66 1.32 1 2 C2.66404108 2.6731935 4.33123147 3.33861219 6 4 C7.80226016 5.1392389 9.57368806 6.32858753 11.3125 7.5625 C12.19550781 8.18253906 13.07851563 8.80257813 13.98828125 9.44140625 C14.65214844 9.95574219 15.31601562 10.47007812 16 11 C16 11.33 16 11.66 16 12 C14.02 12 12.04 12 10 12 C9.67 11.01 9.34 10.02 9 9 C6.91187542 7.54355243 6.91187542 7.54355243 4.4375 6.3125 C3.61121094 5.87550781 2.78492188 5.43851562 1.93359375 4.98828125 C1.29550781 4.66214844 0.65742188 4.33601563 0 4 C0 2.68 0 1.36 0 0 Z " fill="#1EC6A4" transform="translate(314,299)"/>
<path d="M0 0 C2.68777802 -0.0544207 5.37443212 -0.09387266 8.0625 -0.125 C8.81466797 -0.14175781 9.56683594 -0.15851563 10.34179688 -0.17578125 C15.29327709 -0.21865121 19.30414451 0.41600625 24 2 C24 2.99 24 3.98 24 5 C23.44054687 4.7834375 22.88109375 4.566875 22.3046875 4.34375 C14.81542583 1.74297746 7.87027546 1.69380773 0 2 C0 1.34 0 0.68 0 0 Z " fill="#043D41" transform="translate(351,187)"/>
<path d="M0 0 C0.33 0 0.66 0 1 0 C1.25 6.625 1.25 6.625 -1 10 C-1.44703234 12.21584546 -1.81463242 14.44841961 -2.125 16.6875 C-2.29257813 17.86699219 -2.46015625 19.04648437 -2.6328125 20.26171875 C-2.75398437 21.16535156 -2.87515625 22.06898438 -3 23 C-3.33 23 -3.66 23 -4 23 C-4.46546786 14.93189049 -2.54208021 7.62624064 0 0 Z " fill="#1DDBB4" transform="translate(254,263)"/>
<path d="M0 0 C2.31 0.66 4.62 1.32 7 2 C7.33 1.34 7.66 0.68 8 0 C8.3403125 1.1446875 8.3403125 1.1446875 8.6875 2.3125 C10.27302175 5.55904453 11.90214579 6.28802794 15 8 C15 8.66 15 9.32 15 10 C11.13518578 8.61423779 8.03192572 6.81080359 4.6875 4.4375 C3.80449219 3.81746094 2.92148437 3.19742187 2.01171875 2.55859375 C1.34785156 2.04425781 0.68398438 1.52992188 0 1 C0 0.67 0 0.34 0 0 Z " fill="#1EDCB6" transform="translate(275,359)"/>
<path d="M0 0 C3.95901486 5.93852229 4.24710558 12.08104381 4 19 C1.75084573 14.50169146 0.78776604 11.47887665 0.4375 6.375 C0.35371094 5.18648438 0.26992188 3.99796875 0.18359375 2.7734375 C0.12300781 1.85820312 0.06242188 0.94296875 0 0 Z " fill="#1AD3AE" transform="translate(546,265)"/>
<path d="M0 0 C0.74609375 1.703125 0.74609375 1.703125 1 4 C-0.65234375 6.359375 -0.65234375 6.359375 -2.9375 8.75 C-4.06478516 9.94882812 -4.06478516 9.94882812 -5.21484375 11.171875 C-5.80394531 11.77515625 -6.39304687 12.3784375 -7 13 C-8.32 12.67 -9.64 12.34 -11 12 C-10.37351562 11.46890625 -9.74703125 10.9378125 -9.1015625 10.390625 C-8.28429687 9.68421875 -7.46703125 8.9778125 -6.625 8.25 C-5.81289063 7.55390625 -5.00078125 6.8578125 -4.1640625 6.140625 C-2.14204193 4.14050357 -1.06768771 2.60468871 0 0 Z " fill="#084C4E" transform="translate(384,248)"/>
<path d="M0 0 C0 0.66 0 1.32 0 2 C-4.07201382 5.26551788 -7.80142208 5.3745163 -12.8125 5.1875 C-13.85180664 5.16719727 -13.85180664 5.16719727 -14.91210938 5.14648438 C-16.60841265 5.11138845 -18.30431136 5.05758943 -20 5 C-20 4.67 -20 4.34 -20 4 C-19.28714844 3.96261719 -18.57429688 3.92523438 -17.83984375 3.88671875 C-11.81281676 3.47301972 -5.531898 0 0 0 Z " fill="#0B5957" transform="translate(375,406)"/>
<path d="M0 0 C0.66 0.33 1.32 0.66 2 1 C0.37660195 2.70884005 -1.29319053 4.37446717 -3 6 C-3.66 6 -4.32 6 -5 6 C-5.33 6.66 -5.66 7.32 -6 8 C-7.32 7.67 -8.64 7.34 -10 7 C-6.7 4.69 -3.4 2.38 0 0 Z " fill="#1AE8BC" transform="translate(286,232)"/>
<path d="M0 0 C1.46373047 0.02707031 1.46373047 0.02707031 2.95703125 0.0546875 C3.69308594 0.07789063 4.42914063 0.10109375 5.1875 0.125 C5.1875 0.455 5.1875 0.785 5.1875 1.125 C4.011875 1.24875 2.83625 1.3725 1.625 1.5 C-2.35370426 1.98935935 -5.99016559 2.9305205 -9.8125 4.125 C-10.1425 3.465 -10.4725 2.805 -10.8125 2.125 C-7.04027911 0.37336544 -4.145861 -0.09990027 0 0 Z " fill="#1BD4AF" transform="translate(359.8125,187.875)"/>
<path d="M0 0 C1.66611905 -0.042721 3.33382885 -0.04063832 5 0 C5.33 0.33 5.66 0.66 6 1 C8.18292774 1.23481693 10.37203174 1.41363323 12.5625 1.5625 C13.76003906 1.64628906 14.95757812 1.73007812 16.19140625 1.81640625 C17.11824219 1.87699219 18.04507812 1.93757813 19 2 C19 2.33 19 2.66 19 3 C16.58265458 3.08117951 14.16805051 3.14056926 11.75 3.1875 C11.06808594 3.21263672 10.38617188 3.23777344 9.68359375 3.26367188 C6.40800711 3.31137459 4.34651444 3.21085076 1.515625 1.48828125 C1.01546875 0.99714844 0.5153125 0.50601562 0 0 Z " fill="#20E2B9" transform="translate(347,407)"/>
<path d="M0 0 C0.83414558 2.38480081 1.11903995 3.63319086 0.328125 6.0703125 C-0.02765625 6.74835938 -0.3834375 7.42640625 -0.75 8.125 C-1.09546875 8.80820312 -1.4409375 9.49140625 -1.796875 10.1953125 C-3 12 -3 12 -6 14 C-5.37240135 11.07120629 -4.41377341 8.63904371 -3 6 C-2.34 6 -1.68 6 -1 6 C-0.67 4.02 -0.34 2.04 0 0 Z " fill="#22E2BC" transform="translate(384,388)"/>
<path d="M0 0 C0.99 0.33 1.98 0.66 3 1 C-4.2 7 -4.2 7 -9 7 C-9 6.34 -9 5.68 -9 5 C-6.09399739 3.74335022 -4.20395416 3 -1 3 C-0.67 2.01 -0.34 1.02 0 0 Z " fill="#20E2BC" transform="translate(375,402)"/>
<path d="M0 0 C1.44098611 0.76429661 2.87766054 1.53672555 4.3125 2.3125 C5.11300781 2.74175781 5.91351563 3.17101562 6.73828125 3.61328125 C8.83787272 4.90059554 10.35447721 6.18406708 12 8 C10.66666667 7.66666667 9.33333333 7.33333333 8 7 C7.34 6.896875 6.68 6.79375 6 6.6875 C3.25081459 5.74246752 1.86032781 4.19252921 0 2 C0 1.34 0 0.68 0 0 Z " fill="#064246" transform="translate(324,393)"/>
<path d="M0 0 C2.475 0.495 2.475 0.495 5 1 C5 1.66 5 2.32 5 3 C5.78375 3.268125 6.5675 3.53625 7.375 3.8125 C10 5 10 5 12 8 C7.44328408 6.48109469 3.68276708 4.04597738 0 1 C0 0.67 0 0.34 0 0 Z " fill="#22D2AE" transform="translate(302,377)"/>
<path d="M0 0 C0.33 0.99 0.66 1.98 1 3 C-1.3125 5.0625 -1.3125 5.0625 -4 7 C-4.99 6.67 -5.98 6.34 -7 6 C-4.69 4.02 -2.38 2.04 0 0 Z " fill="#17E9BC" transform="translate(274,240)"/>
<path d="M0 0 C3.63 2.31 7.26 4.62 11 7 C10.01 7.495 10.01 7.495 9 8 C8.01 7.67 7.02 7.34 6 7 C6 6.34 6 5.68 6 5 C5.071875 4.7834375 5.071875 4.7834375 4.125 4.5625 C2 4 2 4 0 3 C0 2.01 0 1.02 0 0 Z " fill="#1ED9B3" transform="translate(458,194)"/>
<path d="M0 0 C0 4.24645065 -1.81750806 6.38524772 -4 10 C-4.66 10 -5.32 10 -6 10 C-4.6302836 6.00499382 -2.74277578 3.19990508 0 0 Z " fill="#1ADDB4" transform="translate(423,194)"/>
<path d="M0 0 C0.8971875 0.309375 0.8971875 0.309375 1.8125 0.625 C-1.39086822 3.45874881 -3.96837253 4.1455537 -8.1875 4.625 C-3.2421875 -0.55580357 -3.2421875 -0.55580357 0 0 Z " fill="#0C454B" transform="translate(472.1875,395.375)"/>
<path d="M0 0 C2.5 1.375 2.5 1.375 5 3 C5 3.66 5 4.32 5 5 C3.02 5.99 1.04 6.98 -1 8 C-1 7.34 -1 6.68 -1 6 C-0.34 6 0.32 6 1 6 C0.67 4.02 0.34 2.04 0 0 Z " fill="#064748" transform="translate(480,295)"/>
<path d="M0 0 C0.66 0.33 1.32 0.66 2 1 C-0.25 3.5625 -0.25 3.5625 -3 6 C-4.32 5.67 -5.64 5.34 -7 5 C-4.69 3.35 -2.38 1.7 0 0 Z " fill="#0A464A" transform="translate(356,271)"/>
<path d="M0 0 C0.66 0.33 1.32 0.66 2 1 C0.875 2.9375 0.875 2.9375 -1 5 C-4.1875 5.75 -4.1875 5.75 -7 6 C-4.74259377 3.66475218 -2.7194239 1.81294927 0 0 Z " fill="#084E4F" transform="translate(480,388)"/>
<path d="M0 0 C0.66 0.33 1.32 0.66 2 1 C0.875 2.9375 0.875 2.9375 -1 5 C-4.1875 5.75 -4.1875 5.75 -7 6 C-4.74259377 3.66475218 -2.7194239 1.81294927 0 0 Z " fill="#094C4D" transform="translate(489,382)"/>
<path d="M0 0 C-1.12073862 0.83905565 -2.24674547 1.67107831 -3.375 2.5 C-4.00148438 2.9640625 -4.62796875 3.428125 -5.2734375 3.90625 C-7 5 -7 5 -9 5 C-8 2 -8 2 -5.625 0.25 C-3 -1 -3 -1 0 0 Z " fill="#05E2AF" transform="translate(308,306)"/>
<path d="M0 0 C0.66 0.33 1.32 0.66 2 1 C0.00045871 3.99931194 -0.73795271 4.81380099 -4 6 C-4.99 5.67 -5.98 5.34 -7 5 C-4.69 3.35 -2.38 1.7 0 0 Z " fill="#074E4E" transform="translate(332,287)"/>
<path d="M0 0 C0.33 0.99 0.66 1.98 1 3 C0.195625 3.61875 -0.60875 4.2375 -1.4375 4.875 C-4.03874519 6.74164041 -4.03874519 6.74164041 -5 9 C-5.66 8.67 -6.32 8.34 -7 8 C-4.69 5.36 -2.38 2.72 0 0 Z " fill="#20E8BE" transform="translate(266,247)"/>
<path d="M0 0 C0.66 0.33 1.32 0.66 2 1 C1.360625 1.268125 0.72125 1.53625 0.0625 1.8125 C-2.33131686 2.88667752 -2.33131686 2.88667752 -3 6 C-4.32 5.67 -5.64 5.34 -7 5 C-4.69 3.35 -2.38 1.7 0 0 Z " fill="#064C4C" transform="translate(498,376)"/>
<path d="M0 0 C0.66 0.33 1.32 0.66 2 1 C-0.25 3.5625 -0.25 3.5625 -3 6 C-4.32 5.67 -5.64 5.34 -7 5 C-4.69 3.35 -2.38 1.7 0 0 Z " fill="#085150" transform="translate(366,264)"/>
<path d="M0 0 C3.3 0.33 6.6 0.66 10 1 C10 1.99 10 2.98 10 4 C6.7 3.01 3.4 2.02 0 1 C0 0.67 0 0.34 0 0 Z " fill="#075451" transform="translate(365,188)"/>
</svg>
